<?xml version="1.0" encoding="UTF-8" standalone="no"?>
<!-- Created with Inkscape (http://www.inkscape.org/) -->

<svg
   xmlns:dc="http://purl.org/dc/elements/1.1/"
   xmlns:cc="http://creativecommons.org/ns#"
   xmlns:rdf="http://www.w3.org/1999/02/22-rdf-syntax-ns#"
   xmlns:svg="http://www.w3.org/2000/svg"
   xmlns="http://www.w3.org/2000/svg"
   xmlns:sodipodi="http://sodipodi.sourceforge.net/DTD/sodipodi-0.dtd"
   xmlns:inkscape="http://www.inkscape.org/namespaces/inkscape"
   width="100"
   height="100.00004"
   id="svg2"
   version="1.1"
   inkscape:version="0.48.4 r9939"
   inkscape:export-filename="/home/brett/kyber/graphics/ico-problem.png"
   inkscape:export-xdpi="117.3075"
   inkscape:export-ydpi="117.3075"
   sodipodi:docname="ico-problem.svg">
  <defs
     id="defs4" />
  <sodipodi:namedview
     id="base"
     pagecolor="#000000"
     bordercolor="#666666"
     borderopacity="1.0"
     inkscape:pageopacity="0"
     inkscape:pageshadow="2"
     inkscape:zoom="3.959798"
     inkscape:cx="39.858814"
     inkscape:cy="42.670426"
     inkscape:document-units="px"
     inkscape:current-layer="layer1"
     showgrid="false"
     inkscape:window-width="1366"
     inkscape:window-height="719"
     inkscape:window-x="0"
     inkscape:window-y="25"
     inkscape:window-maximized="1"
     showguides="true"
     inkscape:guide-bbox="true"
     fit-margin-top="0"
     fit-margin-left="0"
     fit-margin-right="0"
     fit-margin-bottom="0" />
  <metadata
     id="metadata7">
    <rdf:RDF>
      <cc:Work
         rdf:about="">
        <dc:format>image/svg+xml</dc:format>
        <dc:type
           rdf:resource="http://purl.org/dc/dcmitype/StillImage" />
        <dc:title></dc:title>
      </cc:Work>
    </rdf:RDF>
  </metadata>
  <g
     inkscape:label="Layer 1"
     inkscape:groupmode="layer"
     id="layer1"
     transform="translate(-2.875,-950.12396)">
    <path
       sodipodi:type="arc"
       style="fill:#0000ff;fill-opacity:1"
       id="path3086-7-9"
       sodipodi:cx="-46.467018"
       sodipodi:cy="66.164177"
       sodipodi:rx="47.982246"
       sodipodi:ry="47.982246"
       d="m 1.5152283,66.164177 a 47.982246,47.982246 0 1 1 -95.9644933,0 47.982246,47.982246 0 1 1 95.9644933,0 z"
       transform="matrix(0.16310475,0,0,0.16310475,60.453987,989.33226)" />
    <path
       sodipodi:type="arc"
       style="fill:#0000ff;fill-opacity:1"
       id="path3086-4"
       sodipodi:cx="-46.467018"
       sodipodi:cy="66.164177"
       sodipodi:rx="47.982246"
       sodipodi:ry="47.982246"
       d="m 1.5152283,66.164177 a 47.982246,47.982246 0 1 1 -95.9644933,0 47.982246,47.982246 0 1 1 95.9644933,0 z"
       transform="matrix(1.0420521,0,0,1.0420521,101.29605,931.17744)" />
    <path
       sodipodi:type="arc"
       style="fill:#0000ff;fill-opacity:1"
       id="path3086"
       sodipodi:cx="-46.467018"
       sodipodi:cy="66.164177"
       sodipodi:rx="47.982246"
       sodipodi:ry="47.982246"
       d="m 1.5152283,66.164177 c 0,26.499863 -21.4823833,47.982243 -47.9822463,47.982243 -26.499863,0 -47.982247,-21.48238 -47.982247,-47.982243 0,-26.499863 21.482384,-47.982246 47.982247,-47.982246 26.499863,0 47.9822463,21.482383 47.9822463,47.982246 z"
       transform="matrix(1.0420521,0,0,1.0420521,101.29605,931.17744)" />
    <path
       style="fill:#ffffff;fill-opacity:1"
       d="m 52.858721,949.87142 c -27.753945,0 -50.236259,22.48231 -50.236259,50.23628 0,27.7539 22.482314,50.2688 50.236259,50.2688 27.753945,0 50.268819,-22.5149 50.268819,-50.2688 0,-27.75397 -22.514874,-50.23628 -50.268819,-50.23628 z m 0,13.15324 c 20.488515,0 37.115577,16.59451 37.115577,37.08304 0,20.4885 -16.627062,37.1155 -37.115577,37.1155 -20.488514,0 -37.083019,-16.627 -37.083019,-37.1155 0,-20.48853 16.594505,-37.08304 37.083019,-37.08304 z"
       id="path2988"
       inkscape:connector-curvature="0" />
    <path
       sodipodi:type="arc"
       style="fill:#007fff;fill-opacity:1"
       id="path3086-3"
       sodipodi:cx="-46.467018"
       sodipodi:cy="66.164177"
       sodipodi:rx="47.982246"
       sodipodi:ry="47.982246"
       d="m 1.5152283,66.164177 a 47.982246,47.982246 0 1 1 -95.9644933,0 47.982246,47.982246 0 1 1 95.9644933,0 z"
       transform="matrix(0.86310474,0,0,0.86310474,92.9809,943.01734)" />
    <g
       id="g3081"
       transform="matrix(0.60678127,0,0,0.60678127,21.383069,392.04651)">
      <path
         inkscape:transform-center-y="-19.864274"
         inkscape:transform-center-x="1.0461943"
         transform="matrix(0.89393849,-1.1066302,1.1066302,0.89393849,-42.858784,917.17031)"
         d="M -4.0406092,88.892606 -39.392218,45.158181 16.15871,36.410002 z"
         inkscape:randomized="0"
         inkscape:rounded="0"
         inkscape:flatsided="true"
         sodipodi:arg2="2.4617964"
         sodipodi:arg1="1.4145988"
         sodipodi:r2="32.467606"
         sodipodi:r1="32.467606"
         sodipodi:cy="56.820263"
         sodipodi:cx="-9.0913725"
         sodipodi:sides="3"
         id="path3030"
         style="fill:#ffffff;fill-opacity:1"
         sodipodi:type="star" />
      <path
         inkscape:transform-center-y="-19.864274"
         inkscape:transform-center-x="1.0461953"
         transform="matrix(0.89393849,-1.1066302,1.1066302,0.89393849,37.14122,917.17031)"
         d="M -4.0406092,88.892606 -39.392218,45.158181 16.15871,36.410002 z"
         inkscape:randomized="0"
         inkscape:rounded="0"
         inkscape:flatsided="true"
         sodipodi:arg2="2.4617964"
         sodipodi:arg1="1.4145988"
         sodipodi:r2="32.467606"
         sodipodi:r1="32.467606"
         sodipodi:cy="56.820263"
         sodipodi:cx="-9.0913725"
         sodipodi:sides="3"
         id="path3030-7"
         style="fill:#ffffff;fill-opacity:1"
         sodipodi:type="star" />
      <path
         inkscape:transform-center-y="-8.2912656"
         inkscape:transform-center-x="-7.7424807"
         transform="matrix(0.51140062,1.3274885,-1.3274885,0.51140062,131.97069,1030.3307)"
         d="M -4.0406092,88.892606 -39.392218,45.158181 16.15871,36.410002 z"
         inkscape:randomized="0"
         inkscape:rounded="0"
         inkscape:flatsided="true"
         sodipodi:arg2="2.4617964"
         sodipodi:arg1="1.4145988"
         sodipodi:r2="32.467606"
         sodipodi:r1="32.467606"
         sodipodi:cy="56.820263"
         sodipodi:cx="-9.0913725"
         sodipodi:sides="3"
         id="path3030-7-1"
         style="fill:#ffffff;fill-opacity:1"
         sodipodi:type="star" />
    </g>
    <path
       sodipodi:type="arc"
       style="fill:#ffffff;fill-opacity:1"
       id="path3086-7"
       sodipodi:cx="-46.467018"
       sodipodi:cy="66.164177"
       sodipodi:rx="47.982246"
       sodipodi:ry="47.982246"
       d="m 1.5152283,66.164177 a 47.982246,47.982246 0 1 1 -95.9644933,0 47.982246,47.982246 0 1 1 95.9644933,0 z"
       transform="matrix(0.16310475,0,0,0.16310475,60.453987,989.33226)" />
    <path
       sodipodi:type="arc"
       style="fill:#007fff;fill-opacity:1"
       id="path3086-7-2"
       sodipodi:cx="-46.467018"
       sodipodi:cy="66.164177"
       sodipodi:rx="47.982246"
       sodipodi:ry="47.982246"
       d="m 1.5152283,66.164177 a 47.982246,47.982246 0 1 1 -95.9644933,0 47.982246,47.982246 0 1 1 95.9644933,0 z"
       transform="matrix(0.10521002,0,0,0.10521002,57.763791,993.16282)" />
  </g>
</svg>
